<?xml version="1.0" encoding="utf-8"?>
<!-- Generator: Adobe Illustrator 16.0.0, SVG Export Plug-In . SVG Version: 6.00 Build 0)  -->
<!DOCTYPE svg PUBLIC "-//W3C//DTD SVG 1.1//EN" "http://www.w3.org/Graphics/SVG/1.1/DTD/svg11.dtd">
<svg version="1.1" xmlns="http://www.w3.org/2000/svg" xmlns:xlink="http://www.w3.org/1999/xlink" x="0px" y="0px"
	 width="266.667px" height="416.833px" viewBox="0 0 266.667 416.833" enable-background="new 0 0 266.667 416.833"
	 xml:space="preserve">
<g id="Layer_11">
	<line fill="none" stroke="#D4145A" stroke-miterlimit="10" stroke-dasharray="2" x1="134.5" y1="202" x2="134.5" y2="397"/>
</g>
<g id="Layer_11_copy">
	<line fill="none" stroke="#D4145A" stroke-miterlimit="10" stroke-dasharray="2" x1="37" y1="299.5" x2="232" y2="299.5"/>
</g>
<g id="Layer_6">
	<polygon fill="none" stroke="#D4145A" stroke-miterlimit="10" points="85.709,348.371 134.5,397.161 183.29,348.371 	"/>
</g>
<g id="Layer_7">
	<polygon fill="none" stroke="#D4145A" stroke-miterlimit="10" points="183.29,348.371 134.5,299.581 85.709,348.371 	"/>
</g>
<g id="Layer_5">
	<polygon fill="none" stroke="#D4145A" stroke-miterlimit="10" points="183.29,348.371 232.081,299.581 183.29,250.791 	"/>
</g>
<g id="Layer_2">
	<polygon fill="none" stroke="#D4145A" stroke-miterlimit="10" points="85.709,250.791 36.919,299.581 85.709,348.371 	"/>
</g>
<g id="Layer_4">
	<polygon fill="none" stroke="#D4145A" stroke-miterlimit="10" points="183.29,250.791 134.5,299.581 183.29,348.371 	"/>
</g>
<g id="Layer_3">
	<polygon fill="none" stroke="#D4145A" stroke-miterlimit="10" points="85.709,348.371 134.5,299.581 85.709,250.791 	"/>
</g>
<g id="Layer_8">
	<polygon fill="none" stroke="#D4145A" stroke-miterlimit="10" points="85.709,250.791 134.5,299.581 183.29,250.791 	"/>
</g>
<g id="Layer_9">
	<polygon fill="none" stroke="#D4145A" stroke-miterlimit="10" points="183.29,250.791 134.5,202 85.709,250.791 	"/>
</g>
<g id="Layer_10">
	<line fill="none" stroke="#D4145A" stroke-miterlimit="10" x1="134.5" y1="10" x2="134.5" y2="202"/>
</g>
</svg>
